<svg width="500" height="500" viewBox="0 0 500 500" fill="none" xmlns="http://www.w3.org/2000/svg">
<path fill-rule="evenodd" clip-rule="evenodd" d="M0 31.1111C0 13.9289 13.9289 0 31.1111 0H468.889C486.071 0 500 13.9289 500 31.1111V62.5C500 66.7251 498.625 70.8354 496.081 74.2095L336.111 286.458V375H177.778L405.556 80.7292L76.3889 82.0312V158.854L129.167 197.917L0 363.281V31.1111ZM500 468.889C500 486.071 486.071 500 468.889 500H31.1111C13.9289 500 0 486.071 0 468.889V437.5C0 433.275 1.37549 429.165 3.91853 425.79L163.889 213.542V125H322.222L94.4445 419.271L423.611 417.969V341.146L370.833 302.083L500 136.719V468.889Z" fill="#033F63"/>
</svg>
