<svg width="50" height="50" viewBox="0 0 50 50" fill="none" xmlns="http://www.w3.org/2000/svg">
<path fill-rule="evenodd" clip-rule="evenodd" d="M3.11111 0C1.39289 0 0 1.39289 0 3.11111V36.3281L12.9167 19.7917L7.63889 15.8854V8.20312L40.5556 8.07292L17.7778 37.5H33.6111V28.6458L49.6081 7.42095C49.8624 7.08354 50 6.67251 50 6.25V3.11111C50 1.39289 48.6071 0 46.8889 0H3.11111ZM46.8889 50C48.6071 50 50 48.6071 50 46.8889V13.6719L37.0833 30.2083L42.3611 34.1146V41.7969L9.44445 41.9271L32.2222 12.5H16.3889V21.3542L0.391853 42.579C0.137549 42.9165 0 43.3275 0 43.75V46.8889C0 48.6071 1.39289 50 3.11111 50H46.8889Z" fill="white"/>
</svg>
